<svg width="55" height="55" viewBox="0 0 55 55" fill="none" xmlns="http://www.w3.org/2000/svg">
<circle cx="27.5" cy="27.5" r="27.5" fill="#121212"/>
<path d="M27.5 41.25C35.0939 41.25 41.25 35.0939 41.25 27.5C41.25 19.9061 35.0939 13.75 27.5 13.75C19.9061 13.75 13.75 19.9061 13.75 27.5C13.75 35.0939 19.9061 41.25 27.5 41.25Z" stroke="#61DE5E" stroke-width="2.5" stroke-linecap="round" stroke-linejoin="round"/>
<path d="M23.4988 23.3751C23.822 22.4561 24.4601 21.6812 25.3 21.1876C26.1398 20.694 27.1273 20.5136 28.0874 20.6783C29.0475 20.843 29.9184 21.3421 30.5458 22.0874C31.1731 22.8327 31.5165 23.7759 31.515 24.7501C31.515 27.5001 27.39 28.8751 27.39 28.8751" stroke="#61DE5E" stroke-width="2.5" stroke-linecap="round" stroke-linejoin="round"/>
<path d="M27.5 34.375H27.5138" stroke="#61DE5E" stroke-width="2.5" stroke-linecap="round" stroke-linejoin="round"/>
</svg>
