<svg  width="51" height="50" viewBox="15 12 50 50"  fill="none" xmlns="http://www.w3.org/2000/svg">
<g filter="url(#filter0_d_61_4643)">
<circle cx="39.5" cy="37" r="23.75" fill="#61DE5E" stroke="#121212" stroke-width="2.5"/>
<path d="M34.3665 47.3335C37.717 47.3335 40.4331 44.6174 40.4331 41.2669C40.4331 37.9163 37.717 35.2002 34.3665 35.2002C31.0159 35.2002 28.2998 37.9163 28.2998 41.2669C28.2998 44.6174 31.0159 47.3335 34.3665 47.3335Z" stroke="#121212" stroke-width="2.5" stroke-linecap="round" stroke-linejoin="round"/>
<path d="M34.7131 35.2176L32.6331 24.8003H28.2998" stroke="#121212" stroke-width="2.5" stroke-linecap="round" stroke-linejoin="round"/>
<path d="M40.364 42.1337H48.1649L48.6261 43.8264L46.1187 34.6284C45.9821 33.8113 45.5573 33.0701 44.9215 32.5391C44.2855 32.0081 43.4804 31.7224 42.652 31.7337H33.9854" stroke="#121212" stroke-width="2.5" stroke-linecap="round" stroke-linejoin="round"/>
<path d="M46.6382 37.8003H39.3408" stroke="#121212" stroke-width="2.5" stroke-linecap="round" stroke-linejoin="round"/>
<path d="M49.0995 47.3334C50.0569 47.3334 50.8329 46.5574 50.8329 45.6C50.8329 44.6427 50.0569 43.8667 49.0995 43.8667C48.1422 43.8667 47.3662 44.6427 47.3662 45.6C47.3662 46.5574 48.1422 47.3334 49.0995 47.3334Z" stroke="#121212" stroke-width="2.5" stroke-linecap="round" stroke-linejoin="round"/>
</g>
<defs>
<filter id="filter0_d_61_4643" x="0" y="0.5" width="91" height="91" filterUnits="userSpaceOnUse" color-interpolation-filters="sRGB">
<feFlood flood-opacity="0" result="BackgroundImageFix"/>
<feColorMatrix in="SourceAlpha" type="matrix" values="0 0 0 0 0 0 0 0 0 0 0 0 0 0 0 0 0 0 127 0" result="hardAlpha"/>
<feOffset dx="6" dy="9"/>
<feGaussianBlur stdDeviation="10.25"/>
<feComposite in2="hardAlpha" operator="out"/>
<feColorMatrix type="matrix" values="0 0 0 0 0 0 0 0 0 0 0 0 0 0 0 0 0 0 0.25 0"/>
<feBlend mode="normal" in2="BackgroundImageFix" result="effect1_dropShadow_61_4643"/>
<feBlend mode="normal" in="SourceGraphic" in2="effect1_dropShadow_61_4643" result="shape"/>
</filter>
</defs>
</svg>
