<svg width="27" height="25" viewBox="0 0 27 25" fill="none" xmlns="http://www.w3.org/2000/svg">
<g id="Group 2">
<rect id="Rectangle 4" x="4" y="10.4999" width="19" height="10" fill="#141414"/>
<path id="Vector" d="M20.7247 1.39655H6.24192C4.90882 1.39655 3.82812 2.42864 3.82812 3.70179V18.4016C3.82812 19.6748 4.90882 20.7069 6.24192 20.7069H20.7247C22.0578 20.7069 23.1385 19.6748 23.1385 18.4016V3.70179C23.1385 2.42864 22.0578 1.39655 20.7247 1.39655Z" stroke="black" stroke-width="2.5" stroke-linecap="round" stroke-linejoin="round"/>
<path id="Vector_2" d="M4.79297 10.0862H23.1378" stroke="black" stroke-width="2.5" stroke-linecap="round" stroke-linejoin="round"/>
<path id="Vector_3" d="M7.68945 16.8448H6.72394" stroke="#F4FFAE" stroke-width="2" stroke-linecap="round" stroke-linejoin="round"/>
<path id="Vector_4" d="M20.2422 16.8448H19.2767" stroke="#F4FFAE" stroke-width="2" stroke-linecap="round" stroke-linejoin="round"/>
<path id="Vector_5" d="M13.4824 1.39655V10.0862" stroke="black" stroke-width="2" stroke-linecap="round" stroke-linejoin="round"/>
<path id="Vector_6" d="M5.75781 21.6724V23.6034" stroke="black" stroke-width="2.5" stroke-linecap="round" stroke-linejoin="round"/>
<path id="Vector_7" d="M1.89648 9.1207V11.0517" stroke="black" stroke-width="2.5" stroke-linecap="round" stroke-linejoin="round"/>
<path id="Vector_8" d="M25.0684 9.1207V11.0517" stroke="black" stroke-width="2.5" stroke-linecap="round" stroke-linejoin="round"/>
<path id="Vector_9" d="M21.207 23.6034V21.6724" stroke="black" stroke-width="2.5" stroke-linecap="round" stroke-linejoin="round"/>
</g>
</svg>
