<svg width="26" height="26" viewBox="0 0 26 26" fill="none" xmlns="http://www.w3.org/2000/svg">
<g id="wheelchair--health-medical-hospital-wheelchair-disable-help-sign">
<path id="Vector" d="M7.86745 23.8333C11.218 23.8333 13.9341 21.1172 13.9341 17.7667C13.9341 14.4161 11.218 11.7 7.86745 11.7C4.51691 11.7 1.80078 14.4161 1.80078 17.7667C1.80078 21.1172 4.51691 23.8333 7.86745 23.8333Z" stroke="#121212" stroke-width="2.5" stroke-linecap="round" stroke-linejoin="round"/>
<path id="Vector_2" d="M8.21411 11.7173L6.13411 1.3H1.80078" stroke="#121212" stroke-width="2.5" stroke-linecap="round" stroke-linejoin="round"/>
<path id="Vector_3" d="M13.865 18.6332H21.6659L22.1271 20.3259L19.6197 11.1279C19.4831 10.3108 19.0582 9.5696 18.4224 9.03859C17.7865 8.5076 16.9814 8.2219 16.153 8.23323H7.48633" stroke="#121212" stroke-width="2.5" stroke-linecap="round" stroke-linejoin="round"/>
<path id="Vector_4" d="M20.1391 14.3H12.8418" stroke="#121212" stroke-width="2.5" stroke-linecap="round" stroke-linejoin="round"/>
<path id="Vector_5" d="M22.6005 23.8333C23.5578 23.8333 24.3339 23.0573 24.3339 22.1C24.3339 21.1427 23.5578 20.3667 22.6005 20.3667C21.6432 20.3667 20.8672 21.1427 20.8672 22.1C20.8672 23.0573 21.6432 23.8333 22.6005 23.8333Z" stroke="#121212" stroke-width="2.5" stroke-linecap="round" stroke-linejoin="round"/>
</g>
</svg>
