<svg width="207" height="141" viewBox="0 0 207 141" fill="none" xmlns="http://www.w3.org/2000/svg">
<g clip-path="url(#clip0_4_1913)">
<path d="M21.884 41.7934L23.7245 31.3479C24.0934 29.255 22.482 27.3367 20.3579 27.3367H11.1667C9.04271 27.3367 7.43124 25.4185 7.80013 23.3256L11.3881 2.97446C11.6754 1.33969 13.0966 0.151474 14.7547 0.151474H50.7428C52.8669 0.151474 54.4783 2.0697 54.1094 4.16267L50.5215 24.5138C50.2342 26.1485 48.813 27.3367 47.1549 27.3367H35.5523C33.8943 27.3367 32.4731 28.5288 32.1857 30.1597L30.3452 40.6052C29.9763 42.6981 31.5877 44.6163 33.7118 44.6163H45.1046C47.2287 44.6163 48.8401 46.5346 48.4713 48.6275L48.3858 49.1129C48.0985 50.7477 46.6773 51.9359 45.0192 51.9359H4.63155C2.50752 51.9359 0.896056 50.0177 1.26495 47.9247L1.35037 47.4393C1.63772 45.8046 3.05892 44.6163 4.71698 44.6163H18.5212C20.1793 44.6163 21.6005 43.4242 21.8879 41.7934H21.884ZM21.0025 19.9589H39.9285C41.5866 19.9589 43.0078 18.7668 43.2951 17.136L44.2814 11.5327C44.6503 9.43974 43.0389 7.52151 40.9148 7.52151H21.9888C20.3307 7.52151 18.9095 8.71361 18.6222 10.3445L17.6359 15.9477C17.267 18.0407 18.8785 19.9589 21.0025 19.9589Z" fill="#61DE5E"/>
<path d="M103.541 35.9688L103.444 36.5085C103.156 38.1433 101.735 39.3315 100.077 39.3315H85.9972C84.3391 39.3315 82.9179 40.5236 82.6306 42.1545L81.4035 49.109C81.1162 50.7438 79.695 51.932 78.0369 51.932H77.2719C75.1479 51.932 73.5364 50.0138 73.9053 47.9208L74.713 43.3388C75.0819 41.2458 73.4704 39.3276 71.3464 39.3276H59.6778C57.5538 39.3276 55.9423 37.4094 56.3112 35.3164L56.4083 34.7767C56.6956 33.1419 58.1168 31.9537 59.7749 31.9537H100.166C102.29 31.9537 103.902 33.8719 103.533 35.9649L103.541 35.9688ZM106.562 4.15878L106.438 4.86549C106.15 6.50026 104.729 7.68848 103.071 7.68848H75.012C73.3539 7.68848 71.9327 8.88058 71.6454 10.5115L70.7057 15.839C70.3368 17.932 71.9483 19.8502 74.0723 19.8502H99.7199C101.844 19.8502 103.455 21.7684 103.087 23.8614L102.951 24.6225C102.663 26.2573 101.242 27.4455 99.584 27.4455H64.419C62.295 27.4455 60.6835 25.5272 61.0524 23.4343L64.6598 2.97056C64.9471 1.3358 66.3683 0.147583 68.0264 0.147583H103.191C105.315 0.147583 106.927 2.06581 106.558 4.15878H106.562Z" fill="#61DE5E"/>
<path d="M130.547 51.9359H111.676C109.552 51.9359 107.94 50.0177 108.309 47.9247L116.246 2.91622C116.533 1.28145 117.955 0.093238 119.613 0.093238H120.378C122.502 0.093238 124.113 2.01147 123.744 4.10443L122.199 12.8685C121.83 14.9615 123.441 16.8797 125.565 16.8797H128.971C130.629 16.8797 132.05 15.6876 132.337 14.0567L134.302 2.9201C134.59 1.28534 136.011 0.0971204 137.669 0.0971204H138.488C140.612 0.0971204 142.224 2.01535 141.855 4.10832L133.918 49.1168C133.631 50.7516 132.209 51.9398 130.551 51.9398L130.547 51.9359ZM120.7 44.4494H124.105C125.763 44.4494 127.185 43.2573 127.472 41.6264L129.643 29.3093C130.012 27.2164 128.4 25.2982 126.276 25.2982H122.871C121.213 25.2982 119.791 26.4902 119.504 28.1211L117.333 40.4382C116.964 42.5312 118.576 44.4494 120.7 44.4494ZM148.763 51.9359H147.889C145.765 51.9359 144.154 50.0177 144.523 47.9247L147.835 29.1424C148.204 27.0494 146.592 25.1312 144.468 25.1312C142.344 25.1312 140.733 23.213 141.102 21.12L141.245 20.3045C141.533 18.6698 142.954 17.4816 144.612 17.4816H147.023C148.681 17.4816 150.102 16.2895 150.39 14.6586L152.498 2.69488C152.786 1.06012 154.207 -0.128098 155.865 -0.128098H156.739C158.863 -0.128098 160.474 1.79013 160.105 3.8831L152.129 49.1129C151.842 50.7477 150.421 51.9359 148.763 51.9359Z" fill="#61DE5E"/>
<path d="M206.954 48.7362L206.888 49.1129C206.601 50.7477 205.18 51.9359 203.522 51.9359H163.13C161.006 51.9359 159.395 50.0177 159.763 47.9247L159.829 47.548C160.117 45.9133 161.538 44.7251 163.196 44.7251H203.588C205.712 44.7251 207.323 46.6433 206.954 48.7362ZM197.208 32.0779L192.245 16.8486C191.364 14.146 187.764 13.6373 186.168 15.9904L174.667 32.9361C174.03 33.8719 172.97 34.435 171.84 34.435H170.36C167.638 34.435 166.011 31.4101 167.506 29.1385L185.64 1.57654C186.273 0.617425 187.345 0.0388489 188.494 0.0388489H194.579C196.082 0.0388489 197.41 1.02126 197.848 2.45799L206.263 30.0199C206.935 32.2177 205.292 34.435 202.994 34.435H200.458C198.978 34.435 197.666 33.4836 197.208 32.0779Z" fill="#61DE5E"/>
</g>
<rect x="77.5" y="88.064" width="52" height="52" rx="6.58228" fill="#61DE5E"/>
<rect x="92.6393" y="112.748" width="23.6962" height="13.1646" fill="#1A1A1A"/>
<path d="M114.361 99.5831H94.614C92.7964 99.5831 91.3229 100.99 91.3229 102.726V122.769C91.3229 124.505 92.7964 125.912 94.614 125.912H114.361C116.178 125.912 117.652 124.505 117.652 122.769V102.726C117.652 100.99 116.178 99.5831 114.361 99.5831Z" stroke="black" stroke-width="3.29114" stroke-linecap="round" stroke-linejoin="round"/>
<path d="M92.6393 111.431H117.652" stroke="black" stroke-width="3.29114" stroke-linecap="round" stroke-linejoin="round"/>
<path d="M96.5886 120.646H95.2722" stroke="#F4FFAE" stroke-width="2.63291" stroke-linecap="round" stroke-linejoin="round"/>
<path d="M113.703 120.646H112.386" stroke="#F4FFAE" stroke-width="2.63291" stroke-linecap="round" stroke-linejoin="round"/>
<path d="M104.487 99.5831V111.431" stroke="black" stroke-width="2.63291" stroke-linecap="round" stroke-linejoin="round"/>
<path d="M93.9557 127.229V129.862" stroke="black" stroke-width="3.29114" stroke-linecap="round" stroke-linejoin="round"/>
<path d="M88.6899 110.115V112.748" stroke="black" stroke-width="3.29114" stroke-linecap="round" stroke-linejoin="round"/>
<path d="M120.285 110.115V112.748" stroke="black" stroke-width="3.29114" stroke-linecap="round" stroke-linejoin="round"/>
<path d="M115.019 129.862V127.229" stroke="black" stroke-width="3.29114" stroke-linecap="round" stroke-linejoin="round"/>
<path d="M91.3229 123.279L86.0571 129.862" stroke="black" stroke-width="3.29114" stroke-linecap="round" stroke-linejoin="round"/>
<defs>
<clipPath id="clip0_4_1913">
<rect width="206" height="52.064" fill="white" transform="translate(0.5)"/>
</clipPath>
</defs>
</svg>
