<svg width="55" height="56" viewBox="0 0 55 56" fill="none" xmlns="http://www.w3.org/2000/svg">
<circle cx="27.5" cy="28" r="24.5" fill="#61DE5E"/>
<path d="M27.4998 33.3182C28.9103 33.3182 30.263 32.7579 31.2603 31.7605C32.2577 30.7632 32.818 29.4105 32.818 28C32.818 26.5895 32.2577 25.2368 31.2603 24.2395C30.263 23.2421 28.9103 22.6818 27.4998 22.6818C26.0894 22.6818 24.7367 23.2421 23.7393 24.2395C22.7419 25.2368 22.1816 26.5895 22.1816 28C22.1816 29.4105 22.7419 30.7632 23.7393 31.7605C24.7367 32.7579 26.0894 33.3182 27.4998 33.3182Z" fill="white" stroke="black" stroke-width="2.5" stroke-linecap="round" stroke-linejoin="round"/>
<path d="M27.5 19H27.5109" stroke="black" stroke-width="2.5" stroke-linecap="round" stroke-linejoin="round"/>
<path d="M36.5 28H36.5109" stroke="black" stroke-width="2.5" stroke-linecap="round" stroke-linejoin="round"/>
<path d="M27.5 37H27.5109" stroke="black" stroke-width="2.5" stroke-linecap="round" stroke-linejoin="round"/>
<path d="M18.5 28H18.5109" stroke="black" stroke-width="2.5" stroke-linecap="round" stroke-linejoin="round"/>
<path d="M33.8643 21.6359H33.8752" stroke="black" stroke-width="2.5" stroke-linecap="round" stroke-linejoin="round"/>
<path d="M33.8643 34.3641H33.8752" stroke="black" stroke-width="2.5" stroke-linecap="round" stroke-linejoin="round"/>
<path d="M21.1357 34.3641H21.1467" stroke="black" stroke-width="2.5" stroke-linecap="round" stroke-linejoin="round"/>
<path d="M21.1357 21.6359H21.1467" stroke="black" stroke-width="2.5" stroke-linecap="round" stroke-linejoin="round"/>
</svg>
