<svg width="55" height="56" viewBox="0 0 55 56" fill="none" xmlns="http://www.w3.org/2000/svg">
<circle cx="27.5" cy="28" r="24.5" fill="#61DE5E"/>
<path d="M28.2567 15.8333H27.7433C27.1245 15.8333 26.531 16.0792 26.0934 16.5168C25.6558 16.9543 25.41 17.5478 25.41 18.1667V18.3767C25.4096 18.7859 25.3016 19.1877 25.0968 19.542C24.892 19.8962 24.5977 20.1904 24.2433 20.395L23.7417 20.6867C23.387 20.8915 22.9846 20.9993 22.575 20.9993C22.1654 20.9993 21.763 20.8915 21.4083 20.6867L21.2333 20.5933C20.6979 20.2845 20.0618 20.2007 19.4647 20.3604C18.8675 20.52 18.3581 20.9101 18.0483 21.445L17.7917 21.8883C17.4828 22.4238 17.399 23.0599 17.5587 23.657C17.7184 24.2541 18.1085 24.7635 18.6433 25.0733L18.8183 25.19C19.171 25.3936 19.4642 25.6859 19.6689 26.038C19.8736 26.39 19.9825 26.7895 19.985 27.1967V27.7917C19.9866 28.2028 19.8796 28.6071 19.6747 28.9636C19.4698 29.3201 19.1744 29.6161 18.8183 29.8217L18.6433 29.9267C18.1085 30.2365 17.7184 30.7459 17.5587 31.343C17.399 31.9402 17.4828 32.5763 17.7917 33.1117L18.0483 33.555C18.3581 34.0899 18.8675 34.48 19.4647 34.6397C20.0618 34.7993 20.6979 34.7155 21.2333 34.4067L21.4083 34.3133C21.763 34.1086 22.1654 34.0007 22.575 34.0007C22.9846 34.0007 23.387 34.1086 23.7417 34.3133L24.2433 34.605C24.5977 34.8096 24.892 35.1038 25.0968 35.458C25.3016 35.8123 25.4096 36.2142 25.41 36.6233V36.8333C25.41 37.4522 25.6558 38.0457 26.0934 38.4833C26.531 38.9208 27.1245 39.1667 27.7433 39.1667H28.2567C28.8755 39.1667 29.469 38.9208 29.9066 38.4833C30.3442 38.0457 30.59 37.4522 30.59 36.8333V36.6233C30.5904 36.2142 30.6984 35.8123 30.9032 35.458C31.108 35.1038 31.4023 34.8096 31.7567 34.605L32.2583 34.3133C32.613 34.1086 33.0154 34.0007 33.425 34.0007C33.8346 34.0007 34.237 34.1086 34.5917 34.3133L34.7667 34.4067C35.3021 34.7155 35.9382 34.7993 36.5353 34.6397C37.1325 34.48 37.6419 34.0899 37.9517 33.555L38.2083 33.1C38.5172 32.5646 38.601 31.9285 38.4413 31.3313C38.2816 30.7342 37.8915 30.2248 37.3567 29.915L37.1817 29.8217C36.8256 29.6161 36.5302 29.3201 36.3253 28.9636C36.1204 28.6071 36.0134 28.2028 36.015 27.7917V27.2083C36.0134 26.7972 36.1204 26.3929 36.3253 26.0364C36.5302 25.6799 36.8256 25.3839 37.1817 25.1783L37.3567 25.0733C37.8915 24.7635 38.2816 24.2541 38.4413 23.657C38.601 23.0599 38.5172 22.4238 38.2083 21.8883L37.9517 21.445C37.6419 20.9101 37.1325 20.52 36.5353 20.3604C35.9382 20.2007 35.3021 20.2845 34.7667 20.5933L34.5917 20.6867C34.237 20.8915 33.8346 20.9993 33.425 20.9993C33.0154 20.9993 32.613 20.8915 32.2583 20.6867L31.7567 20.395C31.4023 20.1904 31.108 19.8962 30.9032 19.542C30.6984 19.1877 30.5904 18.7859 30.59 18.3767V18.1667C30.59 17.5478 30.3442 16.9543 29.9066 16.5168C29.469 16.0792 28.8755 15.8333 28.2567 15.8333Z" fill="#121212" stroke="black" stroke-width="2" stroke-linecap="round" stroke-linejoin="round"/>
<path d="M28 31C29.933 31 31.5 29.433 31.5 27.5C31.5 25.567 29.933 24 28 24C26.067 24 24.5 25.567 24.5 27.5C24.5 29.433 26.067 31 28 31Z" fill="#61DE5E"/>
</svg>
