<svg width="42" height="42" viewBox="0 0 42 42" fill="none" xmlns="http://www.w3.org/2000/svg">
<circle cx="20.7579" cy="20.7579" r="18.7091" fill="#61DE5E"/>
<g clip-path="url(#clip0_281_405)">
<rect x="14.0352" y="12.3103" width="15.5172" height="7.75862" fill="#85E2FF"/>
<rect x="14.0352" y="20.0691" width="15.5172" height="8.62069" fill="#1A1A1A"/>
<path d="M28.2591 11.4482H15.328C14.1378 11.4482 13.1729 12.3698 13.1729 13.5065V26.6314C13.1729 27.7681 14.1378 28.6896 15.328 28.6896H28.2591C29.4493 28.6896 30.4142 27.7681 30.4142 26.6314V13.5065C30.4142 12.3698 29.4493 11.4482 28.2591 11.4482Z" stroke="black" stroke-width="2.15517" stroke-linecap="round" stroke-linejoin="round"/>
<path d="M14.0352 19.207H30.4145" stroke="black" stroke-width="2.15517" stroke-linecap="round" stroke-linejoin="round"/>
<path d="M16.6211 25.2415H15.759" stroke="#F4FFAE" stroke-width="1.72414" stroke-linecap="round" stroke-linejoin="round"/>
<path d="M27.8281 25.2415H26.9661" stroke="#F4FFAE" stroke-width="1.72414" stroke-linecap="round" stroke-linejoin="round"/>
<path d="M21.7939 11.4482V19.2069" stroke="black" stroke-width="1.72414" stroke-linecap="round" stroke-linejoin="round"/>
<path d="M14.8975 29.5518V31.2759" stroke="black" stroke-width="2.15517" stroke-linecap="round" stroke-linejoin="round"/>
<path d="M11.4492 18.345V20.0691" stroke="black" stroke-width="2.15517" stroke-linecap="round" stroke-linejoin="round"/>
<path d="M32.1387 18.345V20.0691" stroke="black" stroke-width="2.15517" stroke-linecap="round" stroke-linejoin="round"/>
<path d="M28.6904 31.2759V29.5518" stroke="black" stroke-width="2.15517" stroke-linecap="round" stroke-linejoin="round"/>
<path d="M13.1729 26.9656L9.72458 31.2759" stroke="black" stroke-width="2.15517" stroke-linecap="round" stroke-linejoin="round"/>
</g>
<defs>
<clipPath id="clip0_281_405">
<rect width="25.8621" height="25.8621" fill="white" transform="translate(8 8)"/>
</clipPath>
</defs>
</svg>
