<svg width="122" height="148" viewBox="0 0 122 148" fill="none" xmlns="http://www.w3.org/2000/svg">
<g clip-path="url(#clip0_6_3027)">
<path d="M53.1979 78.0516C53.1979 81.6357 50.2924 84.5412 46.7083 84.5412C43.1242 84.5412 40.2188 81.6357 40.2188 78.0516C40.2188 74.4675 43.1242 71.562 46.7083 71.562C50.2924 71.562 53.1979 74.4675 53.1979 78.0516Z" fill="#61DE5E"/>
<path d="M46.1667 122.024L48.6964 121.843C48.704 121.674 48.7079 121.504 48.7079 121.333C48.7079 115.189 43.727 110.208 37.5829 110.208C35.9414 110.208 34.3831 110.563 32.9805 111.202C33.06 113.335 33.2808 115.051 33.6107 115.968C36.14 122.996 46.1667 122.024 46.1667 122.024Z" fill="#61DE5E"/>
<path fill-rule="evenodd" clip-rule="evenodd" d="M71.5867 131.351C73.255 135.197 67.5038 138.071 65.2209 134.623C62.9381 131.175 57.2747 121.228 57.2747 121.228L56.1253 121.311V121.333C56.1253 131.573 47.8239 139.875 37.5837 139.875C27.3435 139.875 19.042 131.573 19.042 121.333C19.042 113.376 24.0544 106.589 31.0941 103.959V93.0572L27.7566 90.5541C26.9374 89.9397 26.7713 88.7775 27.3857 87.9583C28.0002 87.139 29.1624 86.973 29.9816 87.5874L34.8024 91.203V95.2781C35.2702 93.8237 35.8061 92.5247 36.1739 91.7892C36.5743 90.8647 37.1545 90.2321 37.2456 89.4416C35.2203 87.5924 32.6021 83.368 31.3929 79.6528C30.2896 74.5041 29.1863 65.9283 31.3929 65.3098C32.2216 65.0776 32.9589 65.4003 33.5995 66.1137C35.2644 67.9679 35.4383 71.9297 36.5417 76.7107C37.965 80.7867 38.7483 82.9627 40.5871 84.4338C41.9371 85.5138 43.4831 86.0468 45.2894 86.2174C52.3557 86.8845 58.24 83.6983 58.24 83.6983C58.24 83.6983 62.6532 78.1818 65.9631 75.5429C66.7281 75.1646 67.4508 75.0222 68.0745 75.2396C70.2386 75.9939 68.4967 79.2851 67.0664 81.8594C66.0559 83.6784 64.3509 86.2095 61.1821 88.4793C58.615 90.3181 52.7235 92.5247 50.5169 93.0572C48.7293 93.4886 47.8797 102.176 47.8797 102.176L47.6121 105.735C49.6932 107.076 51.4886 108.822 52.8868 110.861C56.2284 111.151 60.0267 111.459 61.1381 111.459C63.2453 111.459 63.7283 112.918 63.7283 112.918C63.7283 112.918 69.9185 127.506 71.5867 131.351ZM47.5912 110.384C47.4897 110.292 47.3872 110.2 47.2834 110.11C44.6827 107.861 41.2922 106.5 37.5837 106.5C35.9798 106.5 34.4353 106.754 32.9885 107.225C27.0455 109.16 22.7503 114.745 22.7503 121.333C22.7503 129.526 29.3914 136.167 37.5837 136.167C45.7759 136.167 52.417 129.526 52.417 121.333C52.417 116.998 50.5569 113.096 47.5912 110.384Z" fill="#61DE5E"/>
</g>
<path d="M92.4926 2.35743C87.6669 2.35895 82.932 3.68921 78.7921 6.20651C74.6523 8.72383 71.2625 12.3339 68.984 16.6522C66.7054 20.9706 65.6233 25.8355 65.853 30.7287C66.0827 35.622 67.6155 40.3604 70.2882 44.4392L65.8145 56.5223L80.7953 53.7723C84.4026 55.5618 88.3613 56.5017 92.3762 56.5219C96.3912 56.5421 100.359 55.6421 103.983 53.8888C107.608 52.1359 110.796 49.5746 113.31 46.3965C115.824 43.2187 117.599 39.5055 118.502 35.5342C119.406 31.5629 119.415 27.4358 118.528 23.4606C117.642 19.4853 115.883 15.7644 113.383 12.5753C110.883 9.38609 107.705 6.81098 104.088 5.0418C100.471 3.27261 96.5076 2.35502 92.4926 2.35743Z" fill="#61DE5E" stroke="#121212" stroke-width="2.63636" stroke-linecap="round" stroke-linejoin="round"/>
<path d="M78.8291 33.645C80.9005 41.2151 89.1862 45.8413 96.6434 43.7385C101.201 42.0563 104.929 38.2712 106.172 33.645" stroke="#121212" stroke-width="2.63636" stroke-linecap="round" stroke-linejoin="round"/>
<path d="M83.1793 23.1311C82.6073 23.1311 82.1436 22.6604 82.1436 22.0797C82.1436 21.4991 82.6073 21.0283 83.1793 21.0283" stroke="#121212" stroke-width="2.63636" stroke-linecap="round" stroke-linejoin="round"/>
<path d="M83.1797 23.1311C83.7517 23.1311 84.2154 22.6604 84.2154 22.0797C84.2154 21.4991 83.7517 21.0283 83.1797 21.0283" stroke="#121212" stroke-width="2.63636" stroke-linecap="round" stroke-linejoin="round"/>
<path d="M101.822 23.1311C101.25 23.1311 100.786 22.6604 100.786 22.0797C100.786 21.4991 101.25 21.0283 101.822 21.0283" stroke="#121212" stroke-width="2.63636" stroke-linecap="round" stroke-linejoin="round"/>
<path d="M101.822 23.1311C102.394 23.1311 102.858 22.6604 102.858 22.0797C102.858 21.4991 102.394 21.0283 101.822 21.0283" stroke="#121212" stroke-width="2.63636" stroke-linecap="round" stroke-linejoin="round"/>
<defs>
<clipPath id="clip0_6_3027">
<rect width="89" height="89" fill="white" transform="translate(0.5 59)"/>
</clipPath>
</defs>
</svg>
